<svg data-v-423bf9ae="" xmlns="http://www.w3.org/2000/svg" viewBox="0 0 664.1673684885092 185" class="iconAbove"><!----><!----><!----><g data-v-423bf9ae="" id="d403b01b-436f-42ef-89c2-8778cfac01e2" fill="black" transform="matrix(5.020920582231347,0,0,5.020920582231347,0.6025158199817611,112.5629881039126)"><path d="M3.45 5.17L-0.12 5.17Q1.01 4.25 1.20 4.25L1.20 4.25L8.91 4.25Q8.83 4.26 8.50 4.55Q8.17 4.83 8.04 4.94L8.04 4.94Q7.72 5.17 7.59 5.17L7.59 5.17L4.79 5.17L4.79 11.43Q4.79 12.26 4.50 12.80L4.50 12.80Q4.38 13.03 4.23 13.15L4.23 13.15L6.49 13.15Q6.39 13.17 6.06 13.45Q5.74 13.74 5.61 13.84L5.61 13.84Q5.29 14.08 5.15 14.08L5.15 14.08L2.78 14.08Q3.19 13.71 3.29 13.46L3.29 13.46Q3.45 13.06 3.45 12.45L3.45 12.45L3.45 5.17ZM10.83 10.53L10.83 12.59Q10.83 13.28 11.23 13.28L11.23 13.28Q11.37 13.28 11.65 13.16L11.65 13.16Q11.38 13.75 10.85 14.05L10.85 14.05Q10.58 14.21 10.27 14.19Q9.96 14.18 9.83 14.03Q9.69 13.88 9.62 13.67L9.62 13.67Q9.51 13.33 9.51 12.80L9.51 12.80L9.51 5.00Q9.51 4.27 9.26 4.03L9.26 4.03Q9.14 3.92 8.96 3.92L8.96 3.92Q8.67 3.92 8.32 4.02L8.32 4.02Q9.15 3.36 10.83 2.30L10.83 2.30L10.83 8.57Q11.69 7.82 12.58 7.55L12.58 7.55Q12.91 7.44 13.22 7.44Q13.53 7.44 13.81 7.54Q14.08 7.64 14.30 7.82L14.30 7.82Q14.79 8.22 14.79 8.83L14.79 8.83L14.79 12.30Q14.79 13.21 15.22 13.30L15.22 13.30Q15.35 13.33 15.48 13.33L15.48 13.33Q15.70 13.33 16.08 13.16L16.08 13.16Q15.51 13.88 14.76 14.11L14.76 14.11Q14.50 14.19 14.20 14.19Q13.90 14.19 13.74 14.05Q13.58 13.90 13.51 13.69Q13.45 13.47 13.45 13.21L13.45 13.21L13.45 10.14Q13.45 9.10 13.13 8.74L13.13 8.74Q12.84 8.39 12.04 8.39L12.04 8.39Q10.99 8.39 10.86 9.84L10.86 9.84Q10.83 10.21 10.83 10.53L10.83 10.53ZM21.76 12.82L21.76 12.82Q20.82 13.86 19.43 14.12L19.43 14.12Q19.11 14.18 18.64 14.18Q18.17 14.18 17.75 13.91Q17.34 13.65 17.07 13.23L17.07 13.23Q16.56 12.43 16.56 11.27L16.56 11.27Q16.56 10.50 17.15 9.57L17.15 9.57Q17.73 8.65 18.55 8.04L18.55 8.04Q19.44 7.38 20.23 7.38L20.23 7.38Q20.64 7.38 20.92 7.68L20.92 7.68Q21.18 7.98 21.18 8.35Q21.18 8.73 21.02 9.05Q20.86 9.37 20.59 9.67Q20.33 9.97 19.99 10.24Q19.65 10.52 19.30 10.76L19.30 10.76Q18.80 11.10 18.04 11.53L18.04 11.53Q18.26 12.36 18.81 12.81Q19.37 13.25 20.24 13.25L20.24 13.25Q20.98 13.25 21.76 12.82ZM19.69 10.08L19.69 10.08Q19.88 9.78 19.88 9.50Q19.88 9.22 19.82 9.03Q19.76 8.83 19.64 8.68L19.64 8.68Q19.37 8.34 18.95 8.34L18.95 8.34Q17.91 8.34 17.91 10.46L17.91 10.46Q17.91 10.83 17.97 11.20L17.97 11.20Q19.17 10.87 19.69 10.08ZM28.86 4.25L28.86 4.25L30.21 4.24Q31.36 4.24 31.92 4.57L31.92 4.57Q32.64 5.00 32.64 6.06L32.64 6.06Q32.64 7.04 31.51 7.87L31.51 7.87Q31.19 8.09 30.90 8.30L30.90 8.30Q32.55 8.48 33.08 9.65L33.08 9.65Q33.27 10.06 33.27 10.53Q33.27 11.00 33.10 11.38Q32.92 11.75 32.63 12.10Q32.34 12.44 31.97 12.75Q31.60 13.06 31.20 13.30L31.20 13.30Q30.11 13.97 29.28 14.03L29.28 14.03Q28.69 14.08 28.24 14.08L28.24 14.08L26.70 14.08Q27.00 13.66 27.06 13.47L27.06 13.47Q27.16 13.18 27.16 12.67L27.16 12.67L27.16 5.17L25.66 5.17Q26.74 4.25 26.98 4.25L26.98 4.25Q27.92 4.25 28.86 4.25ZM28.49 5.14L28.49 8.31Q28.92 8.29 29.56 8.29Q30.20 8.29 30.49 8.31L30.49 8.31Q31.17 8.09 31.29 7.49L31.29 7.49Q31.32 7.28 31.32 7.01L31.32 7.01Q31.32 5.13 28.96 5.13L28.96 5.13Q28.72 5.13 28.49 5.14L28.49 5.14ZM28.49 9.21L28.49 11.71Q28.49 12.50 28.05 13.15L28.05 13.15L29.96 13.15Q30.75 13.15 31.14 12.93Q31.52 12.71 31.72 12.39Q31.92 12.07 31.92 11.55Q31.92 11.02 31.77 10.64Q31.63 10.27 31.38 10.01Q31.14 9.75 30.80 9.59Q30.47 9.43 30.08 9.35L30.08 9.35Q29.46 9.21 28.49 9.21L28.49 9.21ZM36.13 10.53L36.13 12.59Q36.13 13.28 36.52 13.28L36.52 13.28Q36.66 13.28 36.94 13.16L36.94 13.16Q36.67 13.75 36.14 14.05L36.14 14.05Q35.87 14.21 35.56 14.19Q35.25 14.18 35.12 14.03Q34.99 13.88 34.91 13.67L34.91 13.67Q34.80 13.33 34.80 12.80L34.80 12.80L34.80 5.00Q34.80 4.27 34.55 4.03L34.55 4.03Q34.43 3.92 34.25 3.92L34.25 3.92Q33.96 3.92 33.61 4.02L33.61 4.02Q34.45 3.36 36.13 2.30L36.13 2.30L36.13 8.57Q36.98 7.82 37.88 7.55L37.88 7.55Q38.21 7.44 38.51 7.44Q38.82 7.44 39.10 7.54Q39.38 7.64 39.59 7.82L39.59 7.82Q40.08 8.22 40.08 8.83L40.08 8.83L40.08 12.30Q40.08 13.21 40.52 13.30L40.52 13.30Q40.64 13.33 40.78 13.33L40.78 13.33Q40.99 13.33 41.37 13.16L41.37 13.16Q40.80 13.88 40.05 14.11L40.05 14.11Q39.79 14.19 39.49 14.19Q39.20 14.19 39.03 14.05Q38.87 13.90 38.81 13.69Q38.75 13.47 38.75 13.21L38.75 13.21L38.75 10.14Q38.75 9.10 38.42 8.74L38.42 8.74Q38.13 8.39 37.34 8.39L37.34 8.39Q36.28 8.39 36.16 9.84L36.16 9.84Q36.13 10.21 36.13 10.53L36.13 10.53ZM46.50 9.28L46.50 12.06L46.48 12.54Q46.48 13.07 46.79 13.21L46.79 13.21Q46.90 13.27 47.05 13.27L47.05 13.27Q47.29 13.27 47.54 13.16L47.54 13.16Q47.28 13.27 47.09 13.45Q46.90 13.62 46.70 13.79L46.70 13.79Q46.21 14.21 45.71 14.21L45.71 14.21Q45.21 14.21 45.18 13.63L45.18 13.63Q45.17 13.48 45.17 13.33L45.17 13.33Q43.93 14.18 42.91 14.18L42.91 14.18Q42.04 14.18 41.71 13.66L41.71 13.66Q41.58 13.47 41.58 13.13Q41.58 12.80 41.79 12.46Q41.99 12.12 42.31 11.84L42.31 11.84Q42.87 11.32 43.66 10.99L43.66 10.99Q44.25 10.73 45.17 10.70L45.17 10.70L45.17 10.40Q45.17 9.31 44.97 8.93Q44.78 8.54 44.46 8.36Q44.15 8.18 43.72 8.18L43.72 8.18Q43.00 8.18 42.46 8.46L42.46 8.46Q43.21 7.84 43.56 7.64L43.56 7.64Q44.28 7.24 44.86 7.24Q45.45 7.24 45.74 7.41Q46.03 7.58 46.20 7.86L46.20 7.86Q46.50 8.35 46.50 9.28L46.50 9.28ZM43.29 13.04Q43.45 13.16 43.67 13.21Q43.89 13.27 44.32 13.27Q44.75 13.27 45.17 13.06L45.17 13.06L45.17 11.63L44.06 11.63Q43.47 11.63 43.03 11.71L43.03 11.71Q42.94 12.00 42.94 12.27Q42.94 12.54 43.03 12.73Q43.12 12.92 43.29 13.04ZM54.34 7.44L54.34 7.44Q53.51 8.65 52.34 8.65L52.34 8.65Q52.14 8.65 51.84 8.50L51.84 8.50Q51.27 8.22 51.07 8.22Q50.87 8.22 50.74 8.35Q50.62 8.48 50.54 8.71L50.54 8.71Q50.35 9.21 50.35 10.02L50.35 10.02L50.35 12.64Q50.35 13.08 50.62 13.23L50.62 13.23Q50.72 13.30 50.86 13.30Q51.00 13.30 51.16 13.23L51.16 13.23Q51.02 13.35 50.89 13.52Q50.76 13.69 50.60 13.84L50.60 13.84Q50.21 14.22 49.68 14.22L49.68 14.22Q49.40 14.22 49.21 14.04Q49.02 13.87 49.02 13.62L49.02 13.62L49.02 9.68Q49.02 9.44 49.03 9.20Q49.03 8.96 48.98 8.76L48.98 8.76Q48.85 8.33 48.23 8.33L48.23 8.33Q47.94 8.33 47.65 8.44L47.65 8.44Q47.82 8.38 48.10 8.12L48.10 8.12Q48.65 7.63 48.86 7.55L48.86 7.55Q49.30 7.39 49.57 7.39Q49.84 7.39 49.99 7.47Q50.13 7.55 50.22 7.68L50.22 7.68Q50.35 7.91 50.35 8.38L50.35 8.38Q50.55 8.23 50.79 8.04Q51.02 7.85 51.28 7.68L51.28 7.68Q51.88 7.28 52.34 7.28L52.34 7.28Q52.60 7.28 52.90 7.43Q53.19 7.58 53.33 7.65Q53.48 7.72 53.60 7.72L53.60 7.72Q53.87 7.72 54.34 7.44ZM58.73 9.28L58.73 12.06L58.72 12.54Q58.72 13.07 59.02 13.21L59.02 13.21Q59.14 13.27 59.29 13.27L59.29 13.27Q59.53 13.27 59.78 13.16L59.78 13.16Q59.52 13.27 59.33 13.45Q59.14 13.62 58.94 13.79L58.94 13.79Q58.45 14.21 57.95 14.21L57.95 14.21Q57.45 14.21 57.42 13.63L57.42 13.63Q57.40 13.48 57.40 13.33L57.40 13.33Q56.17 14.18 55.15 14.18L55.15 14.18Q54.28 14.18 53.94 13.66L53.94 13.66Q53.82 13.47 53.82 13.13Q53.82 12.80 54.02 12.46Q54.23 12.12 54.54 11.84L54.54 11.84Q55.10 11.32 55.90 10.99L55.90 10.99Q56.49 10.73 57.41 10.70L57.41 10.70L57.41 10.40Q57.41 9.31 57.21 8.93Q57.01 8.54 56.70 8.36Q56.38 8.18 55.96 8.18L55.96 8.18Q55.24 8.18 54.69 8.46L54.69 8.46Q55.45 7.84 55.79 7.64L55.79 7.64Q56.51 7.24 57.10 7.24Q57.68 7.24 57.98 7.41Q58.27 7.58 58.44 7.86L58.44 7.86Q58.73 8.35 58.73 9.28L58.73 9.28ZM55.52 13.04Q55.69 13.16 55.90 13.21Q56.12 13.27 56.55 13.27Q56.98 13.27 57.41 13.06L57.41 13.06L57.41 11.63L56.30 11.63Q55.71 11.63 55.26 11.71L55.26 11.71Q55.17 12.00 55.17 12.27Q55.17 12.54 55.27 12.73Q55.36 12.92 55.52 13.04ZM61.15 8.16L60.27 8.16L61.15 7.46L61.15 6.49Q61.52 6.23 61.68 6.09Q61.84 5.95 61.95 5.89Q62.06 5.83 62.17 5.76L62.17 5.76Q62.47 5.59 62.49 5.56L62.49 5.56L62.49 7.23L64.67 7.23Q64.59 7.23 64.22 7.55L64.22 7.55Q63.53 8.16 63.35 8.16L63.35 8.16L62.49 8.16L62.49 11.82Q62.49 13.08 63.21 13.28L63.21 13.28Q63.43 13.33 63.62 13.33L63.62 13.33Q63.94 13.33 64.16 13.24Q64.37 13.15 64.52 13.07L64.52 13.07Q64.10 13.71 63.35 14.04L63.35 14.04Q62.96 14.21 62.51 14.21Q62.06 14.21 61.82 14.05Q61.57 13.90 61.42 13.64L61.42 13.64Q61.15 13.18 61.15 12.41L61.15 12.41L61.15 8.16ZM69.58 4.25L72.89 4.25Q76.05 4.25 76.05 6.30L76.05 6.30Q76.05 7.30 75.20 8.16L75.20 8.16Q74.53 8.84 73.47 9.35L73.47 9.35Q74.00 9.56 74.52 10.14L74.52 10.14Q74.66 10.30 74.82 10.47L74.82 10.47L76.60 12.44Q77.06 12.97 77.27 13.07Q77.48 13.17 77.62 13.17L77.62 13.17Q77.93 13.17 78.27 12.95L78.27 12.95Q77.45 14.12 76.23 14.12L76.23 14.12Q75.93 14.12 75.63 13.77L75.63 13.77Q75.55 13.68 75.47 13.59L75.47 13.59L73.64 11.57Q73.25 11.14 72.98 10.85Q72.71 10.56 72.44 10.38L72.44 10.38Q71.93 10.05 71.06 10.05L71.06 10.05L71.06 11.43Q71.06 12.10 71.00 12.33L71.00 12.33Q70.92 12.66 70.57 13.15L70.57 13.15L72.76 13.15Q72.67 13.17 72.48 13.34Q72.28 13.51 72.15 13.63Q72.01 13.75 71.88 13.85L71.88 13.85Q71.57 14.08 71.44 14.08L71.44 14.08L69.19 14.08Q69.73 13.48 69.73 12.45L69.73 12.45L69.73 5.17L68.26 5.17L68.52 4.96Q69.39 4.25 69.58 4.25L69.58 4.25ZM74.72 7.29L74.72 7.29Q74.72 6.71 74.47 6.30Q74.22 5.90 73.81 5.65L73.81 5.65Q73.06 5.17 71.91 5.17L71.91 5.17L71.06 5.17L71.06 9.09L72.13 9.09Q73.35 9.09 73.93 8.78L73.93 8.78Q74.72 8.37 74.72 7.29ZM83.52 12.82L83.52 12.82Q82.58 13.86 81.20 14.12L81.20 14.12Q80.88 14.18 80.40 14.18Q79.93 14.18 79.52 13.91Q79.10 13.65 78.83 13.23L78.83 13.23Q78.33 12.43 78.33 11.27L78.33 11.27Q78.33 10.50 78.91 9.57L78.91 9.57Q79.49 8.65 80.32 8.04L80.32 8.04Q81.20 7.38 82.00 7.38L82.00 7.38Q82.41 7.38 82.69 7.68L82.69 7.68Q82.95 7.98 82.95 8.35Q82.95 8.73 82.78 9.05Q82.62 9.37 82.36 9.67Q82.09 9.97 81.75 10.24Q81.42 10.52 81.06 10.76L81.06 10.76Q80.56 11.10 79.80 11.53L79.80 11.53Q80.02 12.36 80.58 12.81Q81.13 13.25 82.00 13.25L82.00 13.25Q82.74 13.25 83.52 12.82ZM81.46 10.08L81.46 10.08Q81.64 9.78 81.64 9.50Q81.64 9.22 81.58 9.03Q81.52 8.83 81.40 8.68L81.40 8.68Q81.14 8.34 80.71 8.34L80.71 8.34Q79.67 8.34 79.67 10.46L79.67 10.46Q79.67 10.83 79.73 11.20L79.73 11.20Q80.94 10.87 81.46 10.08ZM88.94 9.28L88.94 12.06L88.93 12.54Q88.93 13.07 89.23 13.21L89.23 13.21Q89.35 13.27 89.50 13.27L89.50 13.27Q89.74 13.27 89.99 13.16L89.99 13.16Q89.73 13.27 89.54 13.45Q89.35 13.62 89.15 13.79L89.15 13.79Q88.66 14.21 88.16 14.21L88.16 14.21Q87.66 14.21 87.62 13.63L87.62 13.63Q87.61 13.48 87.61 13.33L87.61 13.33Q86.38 14.18 85.35 14.18L85.35 14.18Q84.49 14.18 84.15 13.66L84.15 13.66Q84.03 13.47 84.03 13.13Q84.03 12.80 84.23 12.46Q84.44 12.12 84.75 11.84L84.75 11.84Q85.31 11.32 86.11 10.99L86.11 10.99Q86.69 10.73 87.62 10.70L87.62 10.70L87.62 10.40Q87.62 9.31 87.42 8.93Q87.22 8.54 86.91 8.36Q86.59 8.18 86.17 8.18L86.17 8.18Q85.45 8.18 84.90 8.46L84.90 8.46Q85.65 7.84 86.00 7.64L86.00 7.64Q86.72 7.24 87.31 7.24Q87.89 7.24 88.18 7.41Q88.48 7.58 88.65 7.86L88.65 7.86Q88.94 8.35 88.94 9.28L88.94 9.28ZM85.73 13.04Q85.89 13.16 86.11 13.21Q86.33 13.27 86.76 13.27Q87.19 13.27 87.62 13.06L87.62 13.06L87.62 11.63L86.51 11.63Q85.91 11.63 85.47 11.71L85.47 11.71Q85.38 12.00 85.38 12.27Q85.38 12.54 85.47 12.73Q85.57 12.92 85.73 13.04ZM93.95 13.23L93.95 13.23Q93.73 13.41 93.52 13.59Q93.32 13.77 93.10 13.90L93.10 13.90Q92.61 14.22 92.09 14.22L92.09 14.22Q91.34 14.22 91.27 13.18L91.27 13.18Q91.26 12.90 91.26 12.63L91.26 12.63L91.26 5.32Q91.26 4.38 90.84 4.10L90.84 4.10Q90.66 3.98 90.49 3.98L90.49 3.98Q90.28 3.98 90.20 3.99Q90.13 4.00 90.07 4.01L90.07 4.01Q91.05 3.32 91.31 3.19L91.31 3.19Q91.66 3.00 92.02 2.82Q92.39 2.64 92.59 2.54L92.59 2.54L92.59 11.97Q92.59 12.25 92.59 12.49Q92.59 12.73 92.67 12.91L92.67 12.91Q92.84 13.28 93.53 13.28L93.53 13.28Q93.75 13.28 93.95 13.23ZM99.00 5.17L97.73 5.17Q98.86 4.25 99.05 4.25L99.05 4.25L104.70 4.25Q104.62 4.25 104.25 4.57Q103.89 4.89 103.69 5.03Q103.50 5.17 103.37 5.17L103.37 5.17L100.34 5.17L100.34 8.49L103.65 8.49Q103.58 8.50 103.41 8.64Q103.24 8.79 103.03 8.96L103.03 8.96Q102.49 9.42 102.32 9.42L102.32 9.42L100.34 9.42L100.34 11.65Q100.34 12.41 100.11 12.89L100.11 12.89Q100.02 13.08 99.87 13.15L99.87 13.15L103.67 13.15Q104.06 13.15 104.48 12.97L104.48 12.97L104.90 12.80Q104.56 13.21 103.41 13.82L103.41 13.82Q102.92 14.08 102.75 14.08L102.75 14.08L98.39 14.08Q99.00 13.25 99.00 12.45L99.00 12.45L99.00 9.42L98.05 9.42Q98.64 8.94 99.00 8.67L99.00 8.67L99.00 5.17ZM108.58 8.78L108.58 8.78Q108.71 8.68 108.71 8.57Q108.71 8.46 108.58 8.40Q108.45 8.34 108.28 8.31L108.28 8.31Q108.01 8.25 107.79 8.25Q107.56 8.25 107.43 8.27Q107.30 8.30 107.21 8.36L107.21 8.36Q107.02 8.49 107.02 8.82Q107.02 9.15 107.17 9.35Q107.31 9.56 107.55 9.71Q107.78 9.85 108.08 9.95Q108.38 10.04 108.69 10.13Q109.01 10.23 109.31 10.34Q109.61 10.45 109.84 10.62L109.84 10.62Q110.37 11.01 110.37 11.68L110.37 11.68Q110.37 12.34 109.73 12.97L109.73 12.97Q109.19 13.51 108.31 13.89L108.31 13.89Q107.49 14.25 106.85 14.25L106.85 14.25Q106.07 14.25 105.59 13.92L105.59 13.92Q105.42 13.79 105.42 13.60Q105.42 13.41 105.60 13.24Q105.78 13.08 106.02 12.94Q106.26 12.80 106.50 12.68Q106.74 12.55 106.86 12.41L106.86 12.41Q106.74 12.54 106.74 12.71Q106.74 12.89 106.93 13.01Q107.12 13.13 107.38 13.19L107.38 13.19Q107.83 13.30 108.25 13.30Q108.66 13.30 108.85 13.15Q109.04 13.00 109.04 12.63Q109.04 12.27 108.90 12.04Q108.75 11.81 108.52 11.65Q108.29 11.48 107.99 11.37Q107.69 11.26 107.38 11.15Q107.06 11.05 106.76 10.94Q106.46 10.83 106.23 10.67L106.23 10.67Q105.71 10.32 105.71 9.76L105.71 9.76Q105.71 9.23 106.34 8.62L106.34 8.62Q106.89 8.10 107.48 7.81L107.48 7.81Q108.50 7.31 109.02 7.31L109.02 7.31Q109.56 7.31 109.80 7.43Q110.04 7.55 110.04 7.63Q110.04 7.72 109.98 7.79Q109.93 7.85 109.85 7.91Q109.77 7.97 109.69 8.02Q109.61 8.07 109.46 8.16Q109.31 8.26 109.05 8.42Q108.80 8.58 108.58 8.78ZM111.99 8.16L111.10 8.16L111.99 7.46L111.99 6.49Q112.36 6.23 112.51 6.09Q112.67 5.95 112.78 5.89Q112.89 5.83 113.00 5.76L113.00 5.76Q113.30 5.59 113.32 5.56L113.32 5.56L113.32 7.23L115.51 7.23Q115.42 7.23 115.06 7.55L115.06 7.55Q114.37 8.16 114.18 8.16L114.18 8.16L113.32 8.16L113.32 11.82Q113.32 13.08 114.04 13.28L114.04 13.28Q114.26 13.33 114.45 13.33L114.45 13.33Q114.77 13.33 114.99 13.24Q115.21 13.15 115.35 13.07L115.35 13.07Q114.93 13.71 114.18 14.04L114.18 14.04Q113.79 14.21 113.34 14.21Q112.90 14.21 112.65 14.05Q112.40 13.90 112.25 13.64L112.25 13.64Q111.99 13.18 111.99 12.41L111.99 12.41L111.99 8.16ZM120.59 9.28L120.59 12.06L120.57 12.54Q120.57 13.07 120.87 13.21L120.87 13.21Q120.99 13.27 121.14 13.27L121.14 13.27Q121.38 13.27 121.63 13.16L121.63 13.16Q121.37 13.27 121.18 13.45Q120.99 13.62 120.79 13.79L120.79 13.79Q120.30 14.21 119.80 14.21L119.80 14.21Q119.30 14.21 119.27 13.63L119.27 13.63Q119.25 13.48 119.25 13.33L119.25 13.33Q118.02 14.18 117.00 14.18L117.00 14.18Q116.13 14.18 115.79 13.66L115.79 13.66Q115.67 13.47 115.67 13.13Q115.67 12.80 115.88 12.46Q116.08 12.12 116.40 11.84L116.40 11.84Q116.96 11.32 117.75 10.99L117.75 10.99Q118.34 10.73 119.26 10.70L119.26 10.70L119.26 10.40Q119.26 9.31 119.06 8.93Q118.86 8.54 118.55 8.36Q118.23 8.18 117.81 8.18L117.81 8.18Q117.09 8.18 116.55 8.46L116.55 8.46Q117.30 7.84 117.65 7.64L117.65 7.64Q118.36 7.24 118.95 7.24Q119.53 7.24 119.83 7.41Q120.12 7.58 120.29 7.86L120.29 7.86Q120.59 8.35 120.59 9.28L120.59 9.28ZM117.37 13.04Q117.54 13.16 117.76 13.21Q117.97 13.27 118.41 13.27Q118.84 13.27 119.26 13.06L119.26 13.06L119.26 11.63L118.15 11.63Q117.56 11.63 117.11 11.71L117.11 11.71Q117.02 12.00 117.02 12.27Q117.02 12.54 117.12 12.73Q117.21 12.92 117.37 13.04ZM123.01 8.16L122.12 8.16L123.01 7.46L123.01 6.49Q123.38 6.23 123.53 6.09Q123.69 5.95 123.80 5.89Q123.91 5.83 124.02 5.76L124.02 5.76Q124.32 5.59 124.34 5.56L124.34 5.56L124.34 7.23L126.53 7.23Q126.44 7.23 126.08 7.55L126.08 7.55Q125.38 8.16 125.20 8.16L125.20 8.16L124.34 8.16L124.34 11.82Q124.34 13.08 125.06 13.28L125.06 13.28Q125.28 13.33 125.47 13.33L125.47 13.33Q125.79 13.33 126.01 13.24Q126.23 13.15 126.37 13.07L126.37 13.07Q125.95 13.71 125.20 14.04L125.20 14.04Q124.81 14.21 124.36 14.21Q123.92 14.21 123.67 14.05Q123.42 13.90 123.27 13.64L123.27 13.64Q123.01 13.18 123.01 12.41L123.01 12.41L123.01 8.16ZM132.16 12.82L132.16 12.82Q131.22 13.86 129.83 14.12L129.83 14.12Q129.51 14.18 129.04 14.18Q128.57 14.18 128.15 13.91Q127.74 13.65 127.47 13.23L127.47 13.23Q126.96 12.43 126.96 11.27L126.96 11.27Q126.96 10.50 127.55 9.57L127.55 9.57Q128.13 8.65 128.95 8.04L128.95 8.04Q129.84 7.38 130.63 7.38L130.63 7.38Q131.04 7.38 131.33 7.68L131.33 7.68Q131.58 7.98 131.58 8.35Q131.58 8.73 131.42 9.05Q131.26 9.37 130.99 9.67Q130.73 9.97 130.39 10.24Q130.05 10.52 129.70 10.76L129.70 10.76Q129.20 11.10 128.44 11.53L128.44 11.53Q128.66 12.36 129.21 12.81Q129.77 13.25 130.64 13.25L130.64 13.25Q131.38 13.25 132.16 12.82ZM130.09 10.08L130.09 10.08Q130.28 9.78 130.28 9.50Q130.28 9.22 130.22 9.03Q130.16 8.83 130.04 8.68L130.04 8.68Q129.77 8.34 129.35 8.34L129.35 8.34Q128.31 8.34 128.31 10.46L128.31 10.46Q128.31 10.83 128.37 11.20L128.37 11.20Q129.58 10.87 130.09 10.08Z"></path></g><!----><g data-v-423bf9ae="" id="c1cbe5ed-6255-4d97-9304-a7b4caf270bf" transform="matrix(1.1111111111111112,0,0,1.1111111111111112,276.3621078067356,0.4093333317173844)" stroke="none" fill="black"><path d="M22.521 100.316h56.044V22.019L22.521.316v100zm30.086-57.903h11.814v11.813H52.607V42.413zm0 16.003h11.814V70.23H52.607V58.416zm0 16.003h11.814v11.812H52.607V74.419zM36.605 42.414h11.813v11.812H36.605V42.414zm0 16.003h11.813V70.23H36.605V58.417zm0 16.002h11.813v11.812H36.605V74.419z"></path></g><!----></svg>